<?xml version="1.0" standalone="no"?>
<!DOCTYPE svg PUBLIC "-//W3C//DTD SVG 20010904//EN"
 "http://www.w3.org/TR/2001/REC-SVG-20010904/DTD/svg10.dtd">
<svg xmlns="http://www.w3.org/2000/svg"
  width="38"
  height="38"
  viewBox="0 0 512 512"
  preserveAspectRatio="xMidYMid meet">
<metadata>
Created by potrace 1.10, written by Peter Selinger 2001-2011
</metadata>
<g transform="translate(0.000000,429.000000) scale(0.100000,-0.100000)"
fill="#000000" stroke="none">
<path d="M2352 4042 c-13 -31 -24 -73 -24 -92 -1 -34 -34 -97 -46 -86 -2 3 3
26 13 52 31 81 -8 83 -79 4 -25 -28 -36 -48 -33 -61 4 -16 2 -19 -15 -13 -20
6 -21 4 -15 -58 6 -61 4 -67 -22 -98 l-28 -33 -44 21 c-25 12 -61 22 -81 22
-20 0 -41 7 -49 16 -19 24 -87 55 -94 44 -3 -5 -1 -19 6 -31 10 -19 9 -21 -7
-15 -10 4 -37 10 -60 13 -41 5 -59 -3 -46 -24 9 -14 101 -63 118 -63 7 0 22
-13 34 -29 11 -17 29 -33 39 -36 11 -3 26 -16 35 -30 15 -22 13 -26 -27 -88
-23 -35 -46 -71 -52 -80 -9 -15 -18 -15 -105 -2 -232 36 -497 -1 -791 -110
-67 -24 -124 -44 -125 -42 -1 1 0 14 3 29 4 23 9 27 28 22 13 -3 28 1 36 9 8
7 20 12 26 10 7 -3 22 1 33 7 16 9 21 18 17 37 -3 19 1 27 19 35 29 14 31 38
4 45 -11 3 -20 9 -20 13 0 5 9 12 20 15 26 8 26 33 1 43 -19 7 -19 8 -2 47 11
26 20 35 25 27 4 -7 3 -19 -3 -26 -9 -11 -5 -15 19 -18 16 -2 31 0 33 6 3 8 9
7 19 -1 13 -11 15 -8 16 23 1 22 -4 37 -13 40 -7 3 -11 12 -9 19 8 19 -12 27
-26 10 -7 -8 -19 -15 -26 -15 -8 0 -14 -5 -14 -11 0 -8 -5 -7 -16 2 -14 11
-19 9 -36 -11 -19 -25 -19 -25 -13 -2 8 29 -22 43 -40 18 -10 -14 -15 -14 -21
-4 -5 7 -9 15 -10 18 0 3 -4 13 -8 22 -4 9 -3 26 3 37 7 12 8 22 1 26 -5 3 -7
19 -3 35 6 34 -15 42 -37 15 -8 -9 -21 -13 -36 -9 -21 5 -25 2 -30 -25 -4 -16
-11 -29 -18 -28 -6 1 -12 -12 -14 -29 -3 -26 -7 -31 -23 -27 -15 4 -19 0 -19
-20 0 -17 -5 -24 -17 -23 -26 2 -28 -33 -4 -55 25 -24 26 -35 5 -43 -23 -9
-24 -8 -24 13 0 24 -16 36 -26 19 -4 -6 -8 -33 -8 -59 -1 -26 -4 -51 -8 -54
-4 -4 -4 -14 -1 -22 3 -8 0 -18 -7 -23 -17 -10 4 -48 33 -60 21 -8 20 -9 -5
-9 -18 -1 -28 -6 -28 -16 0 -9 12 -20 28 -26 15 -7 37 -16 49 -22 12 -5 38 -7
57 -4 26 4 36 2 40 -10 4 -9 5 -16 4 -17 -134 -57 -245 -129 -265 -172 -15
-30 -15 -35 0 -58 11 -15 30 -28 52 -32 l35 -6 -38 -28 c-140 -101 -253 -504
-213 -760 7 -41 32 -133 56 -205 57 -169 59 -185 45 -262 -12 -60 -15 -66 -46
-79 -45 -19 -56 -45 -52 -117 3 -70 7 -68 -90 -45 -38 9 -58 9 -70 2 -27 -18
-20 -36 26 -67 23 -15 42 -36 42 -45 0 -10 13 -22 30 -29 26 -10 30 -16 30
-50 0 -44 14 -63 45 -63 29 0 45 19 45 51 0 65 20 73 78 34 38 -26 115 -35
127 -15 11 17 25 11 25 -10 0 -12 11 -43 25 -70 22 -43 30 -50 55 -50 40 0 77
36 98 95 17 47 20 50 60 56 23 3 51 14 63 25 18 16 20 26 16 66 -4 27 -5 48
-3 48 2 0 19 -15 38 -33 57 -54 205 -90 368 -90 111 0 286 30 343 59 28 15 29
15 22 -2 -5 -11 -10 -36 -13 -56 -4 -33 0 -39 39 -67 24 -18 55 -31 71 -31 42
0 146 37 192 70 23 15 74 49 114 74 63 40 71 49 63 65 -9 16 0 24 64 64 81 49
121 54 105 13 -13 -35 -143 -238 -204 -319 -90 -120 -200 -243 -355 -396 -145
-145 -152 -158 -53 -98 217 130 468 373 653 632 106 148 159 278 159 389 0 36
-2 66 -5 66 -3 0 -26 -15 -52 -34 -39 -27 -55 -32 -84 -29 -33 4 -40 0 -90
-55 -57 -62 -157 -135 -190 -137 -10 -1 -19 -1 -19 -1 5 38 40 111 74 154 50
63 85 134 86 171 0 18 4 22 18 16 30 -13 71 -17 107 -11 36 7 95 58 95 82 0 9
-14 36 -32 62 -17 25 -49 89 -69 141 l-38 96 39 6 c49 7 90 43 90 79 0 15 -7
47 -16 71 -9 24 -40 152 -70 284 -47 212 -59 252 -104 343 -41 82 -66 118
-123 176 -40 40 -82 79 -95 87 l-24 14 44 72 c42 71 43 72 78 66 19 -3 44 -12
56 -19 11 -8 44 -18 74 -24 29 -6 61 -17 70 -25 26 -23 54 -19 47 6 -5 18 -2
20 16 15 57 -17 87 -19 87 -5 -1 18 -141 118 -183 130 -18 5 -60 36 -95 69
l-63 59 19 43 c11 24 31 54 46 67 14 14 26 29 26 34 0 5 18 26 39 46 48 44 76
118 60 159 -6 15 -9 45 -8 67 4 95 -15 102 -49 17z m20 -158 c-8 -26 -27 -53
-53 -73 -21 -18 -39 -38 -39 -45 0 -7 -9 -21 -19 -30 -11 -10 -29 -40 -41 -67
-11 -28 -24 -49 -28 -47 -4 2 -19 10 -34 17 l-27 14 29 36 c26 32 28 41 21 78
-8 39 -7 42 13 40 17 -2 21 5 26 41 4 23 15 50 24 60 18 16 18 16 12 -17 -11
-59 28 -80 71 -39 18 17 23 32 23 74 0 78 11 98 25 43 8 -34 8 -53 -3 -85z
m-455 -194 c23 -21 41 -29 56 -25 13 3 42 -5 71 -20 27 -14 57 -25 66 -25 26
0 131 -67 185 -119 28 -26 80 -63 117 -81 72 -36 86 -51 23 -24 -29 12 -40 13
-45 3 -10 -15 -69 -5 -120 22 -26 14 -47 18 -62 13 -22 -7 -22 -6 -4 21 18 27
17 27 -11 64 -35 43 -71 62 -130 69 -37 4 -47 1 -59 -16 -14 -20 -16 -19 -75
39 -40 39 -73 62 -99 69 -49 13 -52 21 -5 13 26 -4 36 -2 41 11 8 21 11 21 51
-14z m-1087 10 c0 -14 -30 -73 -35 -68 -6 6 19 78 27 78 5 0 8 -5 8 -10z m-3
-127 c-28 -15 -30 -12 -17 22 10 27 11 27 25 9 12 -17 11 -20 -8 -31z m73 -33
c0 -16 -4 -30 -10 -30 -11 0 -14 43 -3 53 11 12 13 8 13 -23z m1205 10 c3 -5
-14 -35 -37 -67 -24 -32 -54 -80 -68 -106 -23 -44 -27 -48 -55 -42 -16 3 -33
9 -38 14 -5 5 21 50 57 102 36 51 66 96 66 101 0 11 68 10 75 -2z m-1281 -15
c-4 -8 -2 -15 2 -15 5 0 9 -13 9 -30 0 -16 -3 -30 -7 -30 -5 0 -8 7 -8 15 0 8
-6 24 -12 35 -11 17 -10 22 2 30 20 13 20 13 14 -5z m125 -11 c-12 -15 -39
-19 -39 -6 0 15 22 30 36 25 11 -4 12 -9 3 -19z m1231 -35 c0 -5 -21 -9 -46
-9 -32 0 -44 4 -42 13 10 27 88 24 88 -4z m-1299 -31 c4 -46 -8 -61 -16 -22
-4 16 -9 35 -11 42 -5 18 6 36 16 25 5 -4 10 -25 11 -45z m-111 13 c0 -24 -3
-28 -20 -24 -24 6 -27 33 -4 33 8 0 12 5 9 10 -3 6 -1 10 4 10 6 0 11 -13 11
-29z m198 13 c-9 -9 -21 -13 -27 -10 -20 13 -11 26 16 26 25 0 26 -1 11 -16z
m1197 -34 c-23 -25 -126 -31 -105 -6 10 13 30 18 104 24 18 2 19 1 1 -18z
m-1459 -36 c-22 -11 -36 -9 -36 7 0 5 7 9 15 9 8 0 15 5 15 10 0 6 6 6 14 -2
11 -10 10 -14 -8 -24z m64 -4 c8 13 10 13 10 -1 0 -9 -6 -22 -14 -28 -11 -9
-15 -8 -20 5 -10 25 -7 41 4 24 9 -13 11 -13 20 0z m210 0 c0 -5 -9 -10 -20
-10 -10 0 -23 -8 -29 -17 -5 -10 -12 -15 -16 -11 -12 12 20 48 42 48 13 0 23
-4 23 -10z m1158 -2 c-5 -16 -108 -24 -108 -9 0 9 19 12 93 19 11 1 17 -3 15
-10z m-1428 -49 c0 -12 -27 -11 -35 1 -11 17 5 32 21 19 8 -6 14 -15 14 -20z
m1400 7 c-8 -8 -40 -17 -70 -21 -49 -7 -53 -6 -42 8 13 15 39 21 102 25 21 2
22 0 10 -12z m-1368 -56 c20 -28 22 -40 8 -40 -5 0 -10 7 -10 15 0 17 -30 35
-59 35 -12 0 -21 3 -21 8 0 4 15 7 33 7 23 0 37 -7 49 -25z m1341 13 c-7 -3
-13 -13 -13 -24 0 -21 -1 -22 -25 -13 -13 5 -14 8 -3 15 9 6 2 9 -19 9 -48 0
-40 16 9 19 23 1 44 4 47 7 2 2 7 1 10 -2 3 -4 0 -9 -6 -11z m-276 -37 c115
-32 178 -63 270 -133 116 -88 148 -140 227 -373 24 -69 62 -174 86 -235 46
-120 62 -214 40 -240 -11 -13 -25 -15 -77 -9 -44 4 -68 3 -78 -6 -26 -21 -17
-35 30 -48 40 -11 45 -15 45 -41 0 -43 38 -159 71 -218 16 -29 29 -57 29 -62
0 -5 -19 -18 -43 -30 -42 -20 -77 -20 -105 2 -17 13 -22 7 -42 -52 -24 -71
-76 -152 -148 -232 -53 -58 -67 -68 -87 -63 -16 4 -34 -1 -54 -15 -77 -55
-312 -145 -449 -171 -140 -28 -443 9 -497 60 -12 11 -29 20 -38 20 -18 0 -47
-37 -47 -60 0 -9 -9 -26 -21 -39 -20 -21 -22 -21 -40 -5 -22 20 -49 12 -49
-14 0 -11 -9 -31 -20 -45 -11 -14 -27 -42 -36 -62 -17 -42 -29 -39 -45 13 -10
32 -28 218 -29 290 0 40 -29 39 -64 -2 -27 -32 -36 -37 -66 -34 -53 5 -60 37
-31 138 35 119 31 161 -31 340 l-53 155 1 185 c1 157 4 197 22 265 46 169 110
286 179 330 57 36 54 61 -10 92 l-42 21 52 51 53 51 21 -21 c11 -11 18 -27 15
-34 -6 -17 10 -30 19 -15 10 17 24 2 18 -20 -6 -23 15 -28 23 -5 3 8 15 17 26
21 15 4 19 12 15 30 -2 14 0 27 4 30 5 3 9 12 9 21 0 11 -7 14 -25 11 -13 -3
-26 0 -29 6 -3 6 -13 1 -24 -13 -14 -17 -25 -22 -38 -17 -21 9 -18 11 151 84
223 97 410 134 660 128 133 -4 175 -8 252 -30z m237 -33 c42 -24 153 -134 196
-195 52 -74 104 -188 114 -253 9 -55 -6 -29 -39 70 -60 180 -131 264 -341 402
-19 13 42 -8 70 -24z m514 -1615 c-4 -9 -9 -27 -9 -40 -1 -13 -5 -1 -11 25 -6
37 -6 53 4 64 11 14 13 13 19 -8 3 -13 2 -32 -3 -41z m-35 -5 c4 -21 9 -54 13
-73 4 -19 4 -32 1 -29 -4 3 -11 28 -16 55 -5 27 -13 57 -16 67 -4 9 -3 17 3
17 5 0 12 -17 15 -37z m-69 -5 c-13 -43 -34 -77 -55 -89 -23 -12 -22 -13 -39
21 -12 22 -10 27 25 57 46 40 80 45 69 11z m56 -67 c7 -33 9 -68 5 -78 -7 -14
-10 -7 -16 27 -4 25 -10 63 -15 84 -5 26 -4 37 3 33 6 -4 16 -33 23 -66z
m-2006 -96 c31 -40 66 -53 102 -36 19 8 24 8 24 -3 0 -18 27 -28 34 -13 4 7 4
-3 1 -22 -3 -18 -5 -49 -5 -67 0 -34 -16 -47 -22 -19 -2 10 -7 12 -18 5 -13
-9 -13 -11 0 -20 12 -8 11 -10 -6 -10 -34 0 -85 21 -81 34 2 6 19 10 41 8 20
-2 43 2 51 8 22 18 18 57 -6 70 -24 13 -41 4 -19 -10 23 -15 -2 -45 -34 -43
-14 1 -26 -3 -26 -9 0 -6 -3 -8 -6 -5 -4 3 -15 2 -25 -3 -14 -8 -20 -4 -33 21
-9 17 -13 36 -10 41 3 5 -4 12 -15 15 -29 7 -21 27 12 31 15 2 27 8 27 13 0
10 -21 13 -57 10 -26 -2 -30 19 -12 66 16 43 32 46 45 7 6 -19 24 -50 38 -69z
m1626 44 c-12 -30 -40 -95 -62 -146 l-41 -92 -73 -30 c-41 -17 -80 -31 -87
-31 -7 0 -34 13 -59 29 -37 23 -45 34 -41 50 3 14 13 21 28 21 12 0 39 7 60
16 28 11 35 18 26 27 -8 8 -23 5 -56 -11 -25 -12 -48 -22 -50 -22 -12 0 -3 17
20 43 22 23 33 27 83 27 l58 0 22 44 c17 36 29 47 60 56 21 7 58 27 83 45 24
18 45 31 47 30 1 -1 -7 -27 -18 -56z m354 -29 l6 -65 -15 55 c-17 65 -19 98
-6 85 5 -6 12 -39 15 -75z m-145 47 c-41 -31 -134 -76 -141 -69 -6 6 16 25 58
51 44 26 72 37 78 31 5 -5 8 -11 5 -13z m125 -98 c5 -48 5 -50 -5 -19 -5 19
-14 47 -18 62 -5 15 -6 29 -3 33 10 10 21 -20 26 -76z m-295 -5 c7 -19 11 -36
9 -37 -1 -1 -24 -17 -50 -35 -27 -18 -48 -31 -48 -29 0 13 62 137 68 137 4 0
14 -16 21 -36z m261 24 c1 -7 5 -32 9 -55 5 -24 5 -43 1 -43 -4 0 -10 15 -13
33 -4 17 -9 42 -13 55 -4 13 -2 22 5 22 6 0 11 -6 11 -12z m-31 -92 l8 -56
-86 -107 c-109 -139 -240 -274 -362 -374 -178 -148 -188 -147 -44 2 209 214
348 387 432 536 19 35 37 62 40 59 2 -2 8 -29 12 -60z m-2090 48 c21 -5 30
-11 27 -20 -3 -7 -1 -16 5 -19 5 -4 7 -11 4 -16 -4 -5 1 -12 10 -16 10 -3 28
-16 42 -29 20 -19 23 -27 16 -55 -5 -18 -14 -34 -21 -37 -17 -5 -15 27 4 45
12 13 13 18 3 24 -7 4 -16 6 -20 3 -4 -2 -10 3 -13 11 -3 9 -17 20 -32 25 -22
9 -25 14 -19 41 6 26 4 30 -12 29 -30 -4 -43 -1 -43 10 0 12 7 12 49 4z m141
-88 c-7 -7 -21 1 -45 24 -28 27 -32 36 -23 48 11 12 18 9 45 -24 23 -25 30
-41 23 -48z"/>
<path d="M1695 3070 c-9 -27 3 -76 21 -90 7 -7 23 -10 34 -7 16 4 23 -1 30
-18 5 -13 21 -31 35 -41 23 -15 27 -15 51 1 15 9 29 26 31 36 3 12 14 19 28
19 34 0 62 44 44 71 -8 11 -13 9 -29 -13 -14 -18 -26 -24 -41 -21 -15 4 -27
-2 -44 -23 l-22 -28 -17 31 c-9 18 -16 39 -16 48 0 21 -23 19 -38 -5 -18 -29
-30 -25 -38 15 -8 42 -20 53 -29 25z"/>
<path d="M1753 2705 c-34 -7 -70 -18 -82 -24 -26 -15 -31 -14 -31 5 0 10 -7
14 -22 12 -18 -2 -24 -11 -28 -37 -4 -31 -6 -33 -19 -18 -16 20 -78 23 -115 6
-17 -8 -31 -28 -42 -58 -81 -220 -123 -309 -163 -345 -20 -18 -21 -18 -70 19
-87 63 -138 131 -208 273 -71 146 -84 158 -157 149 -54 -7 -91 -37 -91 -73 0
-36 36 -57 83 -49 l32 6 -4 -38 c-3 -21 -8 -67 -11 -101 -6 -60 -50 -203 -81
-264 l-14 -27 -25 24 c-53 54 -135 15 -135 -65 0 -89 106 -121 155 -47 8 13
34 44 56 68 51 55 94 144 116 236 l17 71 28 -44 c37 -58 103 -124 170 -169 63
-41 124 -56 134 -32 3 8 16 18 29 21 35 9 113 90 139 145 l22 48 31 -36 c36
-43 110 -86 180 -103 27 -7 65 -26 83 -42 l34 -28 -29 -24 c-52 -42 -105 -44
-105 -4 0 11 5 20 10 20 6 0 10 -4 10 -10 0 -16 47 -11 54 6 24 61 -95 87
-153 33 -30 -28 -22 -74 19 -111 38 -35 84 -36 148 -4 60 32 130 42 177 26 67
-22 113 9 64 44 -22 15 -22 15 7 22 73 17 236 88 278 120 82 63 97 125 43 179
-37 37 -93 53 -225 62 l-83 6 36 29 c19 16 40 39 46 49 15 29 -12 66 -58 78
-51 15 -174 12 -250 -4z m253 -49 c3 -8 -8 -33 -25 -57 -29 -40 -30 -43 -14
-61 9 -10 14 -21 11 -24 -3 -2 -39 -4 -79 -2 l-74 3 50 29 c89 52 113 84 83
114 -9 9 -6 12 15 12 15 0 30 -6 33 -14z m-1128 -29 c8 -6 33 -53 57 -104 24
-51 58 -115 75 -141 l31 -47 -55 58 c-58 61 -70 66 -98 40 -17 -15 -18 -13
-18 60 0 70 -2 77 -26 96 -15 12 -35 21 -46 21 -27 0 -17 23 13 31 26 6 46 2
67 -14z m1069 10 c2 -2 -52 -35 -120 -74 l-123 -69 -22 60 c-11 34 -17 64 -13
69 16 16 263 28 278 14z m-460 -45 c-15 -15 -27 -39 -27 -51 0 -73 63 -171
128 -198 31 -13 36 -12 54 4 17 15 20 27 15 81 -5 63 1 74 23 47 8 -10 9 -19
2 -27 -30 -38 49 -182 128 -234 41 -27 43 -27 114 2 19 7 19 7 0 -24 -14 -25
-23 -31 -39 -25 -11 3 -37 5 -57 4 -32 -1 -38 1 -38 18 0 29 -56 79 -103 92
-59 16 -125 51 -185 98 -54 43 -71 48 -90 29 -27 -27 -23 8 13 98 26 66 44 98
59 104 32 13 32 12 3 -18z m127 -122 c8 -57 14 -106 12 -107 -1 -2 -21 10 -43
26 -42 30 -79 94 -85 145 -3 26 0 30 27 33 17 2 37 12 45 22 14 18 16 18 22 3
4 -10 14 -64 22 -122z m649 -21 c17 -24 18 -30 6 -55 -21 -43 -89 -88 -184
-123 -48 -17 -90 -30 -92 -27 -3 2 41 32 96 66 130 80 152 110 114 153 -17 18
-17 19 11 15 17 -2 37 -14 49 -29z m-160 7 c43 -7 82 -17 87 -22 10 -10 -126
-96 -267 -171 l-72 -38 -41 40 c-48 46 -85 106 -95 151 l-6 32 73 10 c105 13
231 13 321 -2z m-1393 -344 c0 -4 -7 -18 -16 -30 -17 -25 -56 -29 -74 -7 -16
19 -5 62 18 68 18 4 72 -19 72 -31z"/>
<path d="M926 1903 c-3 -3 -6 -29 -6 -57 0 -69 21 -98 66 -94 29 2 37 -2 54
-29 37 -61 101 -48 114 23 10 52 -9 68 -38 32 -12 -16 -25 -28 -29 -28 -3 0
-16 18 -27 40 -23 46 -34 49 -67 19 l-22 -22 -11 27 c-5 15 -10 40 -10 56 0
29 -12 45 -24 33z"/>
<path d="M507 1406 c-5 -11 11 -26 27 -26 1 0 2 9 3 20 2 23 -22 27 -30 6z"/>
<path d="M607 3634 c-11 -11 -8 -26 3 -19 6 3 10 2 10 -4 0 -17 -18 -22 -24
-6 -3 8 -12 15 -21 15 -20 0 -15 -68 7 -101 15 -21 17 -22 17 -5 1 11 4 17 7
13 8 -8 44 25 44 40 0 6 8 17 18 23 14 9 12 10 -11 5 -25 -5 -28 -3 -25 16 3
22 -12 36 -25 23z"/>
<path d="M231 1244 c-29 -36 -27 -70 5 -91 35 -23 56 -8 67 46 14 70 -31 97
-72 45z m49 -39 c0 -28 -4 -35 -19 -35 -24 0 -34 25 -21 51 18 32 40 23 40
-16z"/>
<path d="M324 1132 c-6 -4 -16 -22 -22 -39 -9 -27 -8 -36 4 -48 33 -32 84 -12
84 33 0 49 -33 76 -66 54z m40 -38 c11 -29 6 -44 -14 -44 -25 0 -36 25 -20 45
16 19 26 19 34 -1z"/>
<path d="M186 1059 c-31 -37 -33 -72 -6 -99 44 -44 98 -3 87 66 -11 69 -41 81
-81 33z m44 -28 c12 -23 12 -32 2 -49 -14 -21 -42 -3 -42 27 0 44 22 55 40 22z"/>
</g>
</svg>
